<svg width="40" height="40" viewBox="0 0 40 40" fill="none" xmlns="http://www.w3.org/2000/svg">
<path fill-rule="evenodd" clip-rule="evenodd" d="M20.0002 25.8333C18.6218 25.8333 17.5002 24.7117 17.5002 23.3333C17.5002 21.955 18.6218 20.8333 20.0002 20.8333C21.3785 20.8333 22.5002 21.955 22.5002 23.3333C22.5002 24.7117 21.3785 25.8333 20.0002 25.8333ZM20.0002 17.5C16.7835 17.5 14.1668 20.1167 14.1668 23.3333C14.1668 26.55 16.7835 29.1667 20.0002 29.1667C23.2168 29.1667 25.8335 26.55 25.8335 23.3333C25.8335 20.1167 23.2168 17.5 20.0002 17.5ZM33.3335 30C33.3335 30.9183 32.5868 31.6667 31.6668 31.6667H8.3335C7.4135 31.6667 6.66683 30.9183 6.66683 30V16.6667C6.66683 15.7483 7.4135 15 8.3335 15H31.6668C32.5868 15 33.3335 15.7483 33.3335 16.6667V30ZM16.6668 9.16667C16.6668 8.70667 17.0418 8.33333 17.5002 8.33333H22.5002C22.9585 8.33333 23.3335 8.70667 23.3335 9.16667V11.6667H16.6668V9.16667ZM31.6668 11.6667H26.6668V9.16667C26.6668 6.87 24.7985 5 22.5002 5H17.5002C15.2018 5 13.3335 6.87 13.3335 9.16667V11.6667H8.3335C5.57683 11.6667 3.3335 13.91 3.3335 16.6667V30C3.3335 32.7567 5.57683 35 8.3335 35H31.6668C34.4235 35 36.6668 32.7567 36.6668 30V16.6667C36.6668 13.91 34.4235 11.6667 31.6668 11.6667Z" fill="#8F9BB3"/>
<mask id="mask0" mask-type="alpha" maskUnits="userSpaceOnUse" x="3" y="5" width="34" height="30">
<path fill-rule="evenodd" clip-rule="evenodd" d="M20.0002 25.8333C18.6218 25.8333 17.5002 24.7117 17.5002 23.3333C17.5002 21.955 18.6218 20.8333 20.0002 20.8333C21.3785 20.8333 22.5002 21.955 22.5002 23.3333C22.5002 24.7117 21.3785 25.8333 20.0002 25.8333ZM20.0002 17.5C16.7835 17.5 14.1668 20.1167 14.1668 23.3333C14.1668 26.55 16.7835 29.1667 20.0002 29.1667C23.2168 29.1667 25.8335 26.55 25.8335 23.3333C25.8335 20.1167 23.2168 17.5 20.0002 17.5ZM33.3335 30C33.3335 30.9183 32.5868 31.6667 31.6668 31.6667H8.3335C7.4135 31.6667 6.66683 30.9183 6.66683 30V16.6667C6.66683 15.7483 7.4135 15 8.3335 15H31.6668C32.5868 15 33.3335 15.7483 33.3335 16.6667V30ZM16.6668 9.16667C16.6668 8.70667 17.0418 8.33333 17.5002 8.33333H22.5002C22.9585 8.33333 23.3335 8.70667 23.3335 9.16667V11.6667H16.6668V9.16667ZM31.6668 11.6667H26.6668V9.16667C26.6668 6.87 24.7985 5 22.5002 5H17.5002C15.2018 5 13.3335 6.87 13.3335 9.16667V11.6667H8.3335C5.57683 11.6667 3.3335 13.91 3.3335 16.6667V30C3.3335 32.7567 5.57683 35 8.3335 35H31.6668C34.4235 35 36.6668 32.7567 36.6668 30V16.6667C36.6668 13.91 34.4235 11.6667 31.6668 11.6667Z" fill="white"/>
</mask>
<g mask="url(#mask0)">
</g>
</svg>
